<svg width="17" height="13" viewBox="0 0 17 13" fill="none" xmlns="http://www.w3.org/2000/svg">
<g id="brandico:twitter-bird">
<g clip-path="url(#clip0_172_3419)">
<g id="Union">
<path d="M5.07161 4.61335H2.46804V12.2379H5.07161V4.61335Z" fill="#9893A3"/>
<path d="M4.6339 1.05515C4.38577 0.904897 4.09416 0.824712 3.79586 0.824707C3.59682 0.824704 3.39975 0.860413 3.21597 0.929781C3.03219 0.999148 2.86534 1.10081 2.725 1.22891C2.58466 1.35701 2.47361 1.50902 2.39824 1.67621C2.32286 1.84341 2.28465 2.02247 2.28579 2.20311C2.28751 2.47384 2.37753 2.73804 2.54449 2.96238C2.71146 3.18672 2.9479 3.36116 3.22397 3.46369C3.50005 3.56621 3.8034 3.59223 4.09575 3.53846C4.3881 3.4847 4.65636 3.35355 4.86667 3.16157C5.07699 2.96958 5.21996 2.72537 5.27752 2.45973C5.33509 2.19409 5.30468 1.91893 5.19014 1.66895C5.07559 1.41898 4.88204 1.2054 4.6339 1.05515Z" fill="#9893A3"/>
<path d="M9.25084 4.61297H6.74273L6.73405 12.2533H9.33762V8.48038C9.33762 7.48793 9.54591 6.52698 10.8998 6.52698C12.2536 6.52698 12.2536 7.66909 12.2536 8.55127V12.2375H14.8572V8.05505C14.8572 5.99925 14.3278 4.42393 11.7242 4.42393C11.228 4.4063 10.7358 4.5113 10.3002 4.7277C9.8646 4.94411 9.5019 5.26381 9.25084 5.65268V4.61297Z" fill="#9893A3"/>
</g>
</g>
</g>
<defs>
<clipPath id="clip0_172_3419">
<rect x="0.727417" y="0.236084" width="15.5152" height="12.6032" rx="1" fill="white"/>
</clipPath>
</defs>
</svg>
